<svg width="600px" height="480px" viewBox="0 0 600 480" version="1.1" xmlns="http://www.w3.org/2000/svg" xmlns:xlink="http://www.w3.org/1999/xlink">
        <path d="M0,99.9995946 C0,44.7727519 44.7817973,0 100.01113,0 L499.98887,0 C555.221788,0 600,44.7730899 600,99.9995946 L600,380.000405 C600,435.227248 555.218203,480 499.98887,480 L100.01113,480 C44.7782121,480 0,435.22691 0,380.000405 L0,99.9995946 Z M40,99.9995946 L40,380.000405 C40,413.134496 66.8685778,440 100.01113,440 L499.98887,440 C533.128621,440 560,413.134049 560,380.000405 L560,99.9995946 C560,66.8655043 533.131422,40 499.98887,40 L100.01113,40 C66.8713787,40 40,66.8659509 40,99.9995946 Z M169.463864,174.900807 L108.82867,140.596569 C100.176263,135.701487 97.1303491,124.719077 102.025431,116.06667 C106.920513,107.414263 117.902923,104.368349 126.55533,109.263431 L214.07133,158.775431 C226.074574,165.566242 226.295518,182.77924 214.470531,189.875908 L126.954531,242.397908 C118.43062,247.513463 107.373647,244.750443 102.258092,236.226531 C97.1425373,227.70262 99.9055566,216.645647 108.429469,211.530092 L169.463864,174.900807 Z M231.84523,296 C220.799535,296 211.84523,287.045695 211.84523,276 C211.84523,264.954305 220.799535,256 231.84523,256 L324.8125,256 C335.858195,256 344.8125,264.954305 344.8125,276 C344.8125,287.045695 335.858195,296 324.8125,296 L231.84523,296 Z" id="t3console" fill="#FF8700" fill-rule="nonzero"></path>
</svg>
